<svg t="1648695861460" class="icon" viewBox="0 0 1024 1024" version="1.1" xmlns="http://www.w3.org/2000/svg" p-id="4404" width="200" height="200"><path d="M24.524 245.02c0.736-5.488 3.768-9.452 8.24-12.476-0.38 9.908 6.444 9.248 12.56 7.808 9.316-2.196 18.588-3.436 28.184-3.544 95.728-1.052 191.46 1.668 287.192-1.64 47.672-1.652 95.448-0.42 143.18-0.284 16.424 0.048 30.796 10.052 34.004 24.036 1.808 7.864 2.508 16.116 2.632 24.212 1.284 82.756-1.832 165.548 1.848 248.312 0.576 12.836 6.128 18.584 20.268 16.432 2.664-0.412 5.264-1.248 7.892-1.892 2.156 3.672-1.92 6.804-0.904 10.376-20.032 0.004-39.972 2.604-59.824 3.448-53.032 2.236-106.196 1.58-159.308 2.336-89.652 1.268-179.332 0.416-269 0.44-11.536 0-23.116 0.66-34.508-1.968-4.848 0.208-5.62-5.9-9.98-6.448-0.64-8.196-6.424-14.84-6.432-23.384-0.04-32.596-0.8-65.188-1.544-97.776-1.296-56.796-0.464-113.644-0.324-170.468 0.02-6.328-0.872-12.136-4.176-17.52z" fill="#ABABAB" p-id="4405"></path><path d="M948.216 472.772c4.6 19.564 6.324 39.388 6.032 59.48-0.352 24.48-0.248 48.964-0.336 73.448-4.132 2.704-8.804 1.652-13.292 1.912-0.164-4.36-0.436-8.712-0.484-13.064-0.208-21.692-5.424-27.22-26.632-28.088-1.964-7.848-6.82-10.672-14.972-10.224-13.812 0.768-27.684 0.484-41.524 0.848-5.76 0.152-10.012 2.472-12.852 8.168-3.616 7.248-2.38 14.692-2.444 22.084-0.192 21.712-1.068 22.592-22.428 20.164-8.592-0.976-13.032-4.344-12.708-14.372 0.776-23.848 0.692-47.752 0.104-71.604-0.452-18.844-4.308-37.072-14.352-53.5-7.224-11.82-12.976-24.356-18.736-36.94-10.82-23.636-17.58-49.284-36.064-69.132-11.344-12.18-23.064-21.012-40.924-20.868-35.1 0.276-70.224 1.212-105.32-0.548 8.868-7.668 19.9-5.836 30.104-6.14 33.168-0.972 66.36-1.184 99.544-1.692 42.096-0.028 84.196 0.032 126.296-0.132 18.444-0.072 33.54 6.668 45.284 20.904-31.096 3.608-62.344 1.384-93.508 2.396-4.388 0.14-8.904-0.56-12.672 2.54-7.524 4.224-6.508 10.94-3.752 16.884 13.288 28.564 26.916 56.964 40.668 85.308 4.976 10.24 13.444 14.132 24.988 13.816 33.316-0.932 66.656-1.152 99.98-1.648z" fill="#FD6D5C" p-id="4406"></path><path d="M720.928 332.7c-33.184 0.508-66.376 0.724-99.544 1.692-10.208 0.304-21.24-1.524-30.1 6.144l-0.032 0.188c-1.248 0.84-2.488 1.676-3.728 2.52-1.928 0.648-3.34 1.844-4.076 3.772-5.784 4.128-8.616 10.08-10.292 16.736-3.728 5.324-3.472 11.436-3.44 17.496 0.26 49.48 0.544 98.956 0.816 148.44-4.788-1.388-8.936 7.708-14.404 0.464-3.476-4.604-5.316-9.136-5.364-14.904-0.508-60.4 1.468-120.82-1.88-181.196-1.532-27.656 3.52-55.784-6.228-82.82 5.48 3.452 6.936 10.124 11.468 14.348 3.988 3.728 8.096 8.008 11.184-0.64 1.248-3.496 3.816-3.252 6.528-3.44 44.556-3.144 89.18-1.752 133.78-2.088 5.724-0.044 7.604 2.152 9.384 7.92 6.632 21.488 5.516 43.452 5.928 65.368z" fill="#E8E8E8" p-id="4407"></path><path d="M786.332 358.404c3.768-3.096 8.284-2.4 12.672-2.54 31.164-1.012 62.412 1.212 93.508-2.396 23.752-2.764 33.872 12.036 41.972 31.108 9.344 21.988 20.264 43.296 30.348 64.976 2.976 6.404 6.18 13.092-0.876 19.16-35.384-2.28-70.704 0.748-106 2.048-16.36 0.608-25.132-7.076-30.76-19.7-11.74-26.32-24.636-52.048-37.14-77.984-2.204-4.576-4.036-9.388-3.724-14.672z" fill="#3E3A3A" p-id="4408"></path><path d="M492.932 759.464c-3.612 0.292-5.012 11.288-10.564 2.192 0.956-0.132 2.1 0.012 2.808-0.472 0.808-0.556 0.392-1.408-0.516-1.148-0.908 0.252-1.696 0.924-2.54 1.416l0.652 0.084c-5.312 1.236-10.652 1.732-16.128 1.708-25.168-0.116-50.336-0.02-75.504 0l-8.24 0.028-38.912-0.092c-3.932-1.516-5.268-5.576-8.048-8.22l-0.352-83.716c1.32-5.244 2.544-10.556 9.632-10.5 2.04 0.068 4.076 0.192 6.112 0.192 39.088-0.024 78.176-0.104 117.268-0.06 12.396 0.016 15.608 3.692 17.056 15.008 2.912 22.692 1.108 45.432 1.704 68.14 0.16 5.824 0.372 11.5 5.572 15.44z" fill="#5A5A5A" p-id="4409"></path><path d="M731.336 808.704c-5.24 8.256-12.408 14.444-20.768 19.344-0.244-27.012-13.44-41.9-34.528-30.956-11.892 6.176-24.024 8.688-37.168 7.104-6.752 1.384-11.66-2.096-16.348-6.172-1.244-1.58-2.3-3.356-3.752-4.716-12.016-11.316-17.764-25.048-16.784-41.648 0.376-6.4 1.308-13.172-0.292-19.164-1.688-6.332 2.5-15.82-7.948-18.484 1.192-3.096 4.608-5.856 3.38-9.28-5.504-15.296 3.852-23.496 13.916-32.22 14.84-12.864 32.488-13.136 50.012-11.368 22.296 2.248 39.492 14.752 53.7 31.568 1.344 1.596 2.8 3.688 1.096 5.392-2.608 2.604-4.136-0.58-5.72-1.948-3.516-3.052-6.156-7.54-11.868-6.62l-0.016-0.004c-4.14-8.068-15.304-13.556-24.512-12.052-5.404-0.7-10.808-1.404-16.212-2.096-9.796-0.944-18.736 2.716-27.708 5.62-3.444 1.12-9.368 2-8.328 7.272 0.996 5.06 6.244 5.004 10.868 5.46 14.888 1.484 30.124 3.164 42.388 12.504 19.932 15.172 32.08 36.052 37.404 60.164 3.464 15.744 5.848 31.316 19.188 42.3z m-111.368-53.94c-0.484 15.36 10.584 28.444 24.2 28.612 14.152 0.18 26.824-12.104 27.16-26.332 0.372-15.824-10.752-28.476-25.384-28.856-14.76-0.376-25.476 10.588-25.976 26.576zM260.604 802.228c-2.224 6.896-6.744 12.084-12.26 16.528-7.612-5.648-18.732-5.016-24.76-13.284-6.9-9.46-15.42-8.716-24.484-4.492-13.976 6.508-28.268 9.552-43.5 5.248-0.68 0-1.36-0.004-2.036-0.02-1.148-2.72-3.192-4.084-6.148-4.084-0.68-0.004-1.36-0.016-2.036-0.028-0.2-3.9-2.248-5.94-6.144-6.12l-2.056-2.056c-0.064-2.648-1.42-4.012-4.068-4.096-3.736-1.54-4.304-4.672-4.124-8.18-3.176-11.772-5.028-23.664-4.148-35.936 0.78-10.876-1.724-21.412-4.156-31.916 1.668-6.328 3.892-12.404 2.408-19.348-0.96-4.484 2.392-8.188 5.376-11.624 21.36-24.604 62.132-24.044 87.712-7.184 6.404 4.22 13.612 8.352 17.12 17.86-7.776-2.46-10.936-10.468-18.48-9.908l-3.936-0.232c-0.068-2.792-1.416-4.168-4.284-3.844-12.056-2.74-24.28-2.64-36.524-2.164-8.52-1.54-14.64 4.752-21.992 7.016-4.02 1.244-10.688 3.052-9.408 8.556 1.172 5.048 7.16 6.716 12.604 6.788 2.044 0.036 4.084 0.016 6.132 0.02 32.472 0.068 57.372 17.64 67.812 48.584 3.448 10.212 5.488 20.904 8.2 31.364 3.824 14.752 12.712 22.116 27.18 22.552zM194.48 759.084c-0.096-15.2-11.644-28.472-24.86-28.584-14.98-0.124-26.608 12.048-26.492 27.732 0.12 16.216 11.272 27.976 26.264 27.696 14.004-0.268 25.18-12.228 25.088-26.844z" fill="#3F3F3F" p-id="4410"></path><path d="M214.816 683.588c7.544-0.568 10.704 7.44 18.48 9.904-3.508-9.508-10.716-13.64-17.12-17.86-25.58-16.86-66.352-17.42-87.712 7.184-2.984 3.436-6.336 7.14-5.376 11.624 1.488 6.944-0.736 13.02-2.408 19.352-6.248 2.888-7.376 8.612-8.084 14.576a7.404 7.404 0 0 1-1.656 0.068c-3.588 0.664-7.164 1.416-10.768 1.98-5.568 0.868-9.108 4.864-11.1 9.236-1.824 4.008 3.424 5.82 5.496 8.628 2.516 3.412 7.168 5.204 7.668 10.148l-40.972 0.088c-0.288-20.288 5.296-39.36 12.12-58.176l6.48-10.528 2.084-2.96a3.624 3.624 0 0 1 0.264-1.5l1.78-2.064-0.096 0.112 2.104-2.196-0.104 0.076c9.308-2.188 13.056-11.292 20.244-16.248 42.04-28.976 99.296-24.732 135.344 11.476 15.888 15.956 28.604 34.432 30.812 58.06-7.228-0.932-13.556 2.416-20.212 4.228-0.38-2.764-1.428-5.096-4.14-6.344-4.624-17.156-12.884-31.76-28.82-40.956l-4.308-7.908z" fill="#5A5A5A" p-id="4411"></path><path d="M542.664 251.236c9.748 27.036 4.696 55.164 6.228 82.82 3.348 60.38 1.372 120.796 1.88 181.196 0.048 5.764 1.888 10.296 5.364 14.904 5.464 7.244 9.612-1.852 14.404-0.464l-0.008 16.3c-2.624 0.64-5.228 1.48-7.892 1.892-14.14 2.148-19.696-3.596-20.268-16.432-3.68-82.764-0.564-165.556-1.848-248.312-0.124-8.096-0.824-16.348-2.632-24.212-3.208-13.984-17.58-23.988-34.004-24.036-47.732-0.14-95.504-1.368-143.18 0.284-95.736 3.312-191.468 0.588-287.192 1.64-9.596 0.108-18.872 1.344-28.184 3.544-6.116 1.444-12.94 2.1-12.56-7.808 2.3-3.872 5.916-5.444 10.208-5.836 1.94 4.316 5.788 4.084 9.592 4.084 80.816-0.02 161.632-0.016 242.448-0.064 3.232 0 7.156 1.04 8.192-3.836l40.816 0.036c3.136 3.064 7.084 1.78 10.676 1.784 44.84 0.08 89.684 0.152 134.524-0.04 11.236-0.048 22.332 0.072 33.016 4.076l3.888 0.268c0.252 2.564 1.648 3.876 4.244 3.896 4.024 0.384 6.288 3.02 8.06 6.296 0.052 2.916 0.16 5.788 4.096 6.096 0.032 0.628 0.072 1.272 0.132 1.924z" fill="#D3D3D3" p-id="4412"></path><path d="M993.332 690.396c9.908 2.312 13.692 9.504 14.032 18.724 0.332 9.164-0.128 18.36-0.24 27.54-30.928-0.02-61.864 0.244-92.784-0.204-12.112-0.176-24.268-1.556-35.984-5.096-3.112-0.94-7.712-1.224-7.632-5.496 0.184-10.072-6.976-10.768-14.032-12.624-8.436-2.224-16.904-0.624-25.324-1.192l-1.808-2.14c-1.5-4.736-3-9.472-4.492-14.208 53.188 1.16 106.316-1.784 159.484-2.148 2.904-0.02 6.264 1.108 8.408-2.16a3.12 3.12 0 0 1 0.372-0.996z" fill="#8A8A8A" p-id="4413"></path><path d="M335.588 671.248l0.352 83.712c-2.636 3.14-6.26 2.036-9.524 2.072-11.192 0.12-22.392 0.068-33.588 0.08-8.412 4.076-0.952 8.16-0.012 12.244l2.072 8.188c0.036 2.672 1.408 4.028 4.06 4.116 2.1 7.804 10.712 9.912 14.34 16.372 0.076 2.66 1.432 4.028 4.104 4.076l2.036 0.024c10.168 9.788 23.016 8.312 35.396 8.1 17.52-0.296 32.336 3.46 38.252 22.584-44.492 27.776-113.476-6.7-118.748-63.38 0.968-6.5 0.352-12.284-8.468-14.62 9.08-4.356 18.38 2.128 25.164-4.904 14.856 2.036 14.344 2.092 12.68-12.472-1.508-13.208-5.72-25.436-10.684-37.56 11.136-0.088 22.272-0.412 33.4-0.176 5.74 0.124 7.544-2.04 7.644-7.676 0.124-6.928-1.864-14.092 1.524-20.78z" fill="#2F2E2E" p-id="4414"></path><path d="M950.092 752.472c-10.148 0.22-20.296 0.432-30.452 0.644-8.212 0.048-16.424 0.088-24.644 0.132-4.22 0.144-8.696-1.608-12.5 1.672-7.156-0.924-9.504 2.948-7.86 9.044 1.62 6.032 1.496 12.048 1.848 18.124 0.912 15.96 9.756 24.232 25.224 24.004-8.504 10.748-18.004 20.228-31.456 24.664-2.748-1.296-4.376-3.532-3.948-6.496 1.808-12.52-10.848-17.128-14.568-26.688-0.956-2.468-4.948-2.064-7.444-0.732-14.76 7.88-30.176 5.828-45.644 3.224l-0.008-0.004c-6.084-4.84-10.604-11.684-18.396-14.34-0.016-0.676-0.032-1.36-0.04-2.036-3.012-9.472-9.668-17.908-8.176-28.66l0.004-0.004h29.62c21.004-0.004 20.996-0.004 21.664-21.088 0.012-0.42 0.556-0.824 0.928-1.348 2.12 2.408-0.204 6.404 3.144 8.16-1.124 7.344 2.992 8.248 9.076 8.212 34.44-0.208 68.892-0.192 103.332-0.012 3.56 0.024 8.572-2.508 10.296 3.528z m-108.272 1.928c2.092-0.144 4.296 1.784 6.12-0.628-2.184-1.176-4.256-1.176-6.12 0.628zM313.288 798.024c-3.632-6.46-12.24-8.568-14.34-16.372-0.048-2.66-1.4-4.036-4.06-4.116l-2.072-8.188c3.372-4.076-1.58-8.16 0.012-12.244 11.196-0.012 22.396 0.044 33.588-0.08 3.264-0.036 6.888 1.072 9.524-2.072 2.78 2.644 4.116 6.704 8.052 8.22 12.096 7.632 25.068 3.812 37.804 2.756 0.436-0.036 0.74-1.744 1.104-2.664l8.24-0.028c3.276 3.452 7.524 1.432 11.312 2.02 5.084 0.796 10.636-1.948 15.284 2.044-0.188 2.676-1.712 3.888-4.296 3.948-3.6 0.716-7.208 2.056-10.808 2.024-8.664-0.064-8.5 4.648-6.22 10.572 4.224 10.964 9.788 20.296 23.992 18.32 2.012-0.276 4.056 0.056 5.456 1.892-1.6 6.916-9.212 8.736-12.252 14.432-14.3-4.192-28.656-8.268-39.268-19.784-2.352-2.552-5.168-3.46-8.204-1.436-14.74 9.804-30.56 8.804-46.708 4.852a173.784 173.784 0 0 1-2.036-0.024c-0.076-2.664-1.448-4.012-4.104-4.072z" fill="#3F3F3F" p-id="4415"></path><path d="M622.524 798.024c4.688 4.076 9.596 7.556 16.348 6.172 0.76 4.972 4.656 3.868 7.888 4.072 10.876 0.696 21.472-1.128 32.036-3.412 13.168-2.84 19.576 0.084 24.62 9.768 3.74 7.196-3.804 11.832-3.096 18.136-26.608 16.168-64.524 10.756-90.416-12.216-19.228-17.06-26.78-38.912-28.272-63.652l-0.004-0.836c3.824-10.208 1.116-21.7 6.216-31.656 0.632-0.012 1.264-0.076 1.892-0.18 3.556 4.068 4.116 8.832 4.248 14.096 0.348 14.596 2.944 28.956 9.74 41.92 4.044 7.74 7.692 17.024 18.8 17.788zM110.94 728.432c0.552 0.044 1.104 0.02 1.656-0.068 1.804 3.98 4.444 7.636 4.132 12.38-0.724 11.036 3.496 21.24 5.676 31.768 0.792 3.804 1.24 8.376 6.58 9.124-0.176 3.508 0.392 6.64 4.124 8.18 0.044 2.676 1.408 4.032 4.072 4.096l2.056 2.056c0.184 3.912 2.22 5.964 6.144 6.12 0.676 0.012 1.356 0.024 2.036 0.028 0.2 4.14 3.168 4.124 6.148 4.084 0.676 0.016 1.356 0.02 2.036 0.02 0.468 4.32 3.856 5.432 7.216 5.908 11.404 1.616 22.952 1.32 34.196-0.444 18.004-2.832 30.636 3.252 36.336 19.072-53.624 37.76-128.344-4.468-128.34-71.784 1.972-10.18 3.952-20.36 5.932-30.54z" fill="#2F2E2E" p-id="4416"></path><path d="M37.004 554.172c4.36 0.552 5.132 6.656 9.984 6.444 2.392 6 8.052 4.788 12.768 6.076 14.916 4.068 29.724-0.024 44.576-0.032 112.264-0.072 224.536-0.076 336.804-0.104 3.408 0 6.868 0.248 10.22-0.22 31.456-4.364 63.284 0.724 94.736-3.772 4.488-0.636 7.392 1.008 6.612 6.248-12.58-0.812-25.032-0.328-37.116 3.8-153.568-0.804-307.12 1.256-460.68 2.264-3.252 0.044-6.624-0.704-9.58 1.392l-4.396-3.512c-1.148-5.656-4.564-9.064-10.196-10.264l-0.012-0.02c-0.304-4.584-0.1-8.78 6.28-8.3z" fill="#767574" p-id="4417"></path><path d="M37.004 554.172c-6.38-0.48-6.584 3.716-6.284 8.296-10.884-10.324-11.04-24.272-11.168-37.436-0.716-71.772-0.372-143.556-1.352-215.328-0.212-15.588-1.536-31.112 0.356-46.668 0.78-6.412 1.896-12.7 5.964-18.016 3.304 5.384 4.196 11.192 4.176 17.52-0.136 56.824-0.968 113.672 0.328 170.472 0.744 32.588 1.504 65.176 1.544 97.776 0.012 8.544 5.796 15.188 6.436 23.384z" fill="#8A8A8A" p-id="4418"></path><path d="M780.204 783.688c0.008 0.676 0.024 1.36 0.04 2.036 3.04 8.748 9.092 13.636 18.396 14.34l0.008 0.004c0.056 3.676 3.144 3.752 5.532 4.884 10.968 5.192 22.632 3.036 34.028 3.196 7.916 0.112 14.596 4.164 14.408 10.92-0.176 6.152 1.212 11.884 1.308 17.82-30.676 9.408-72.184-8.012-88.648-36.76-6.848-11.952-11.336-24.484-13.012-38.128-0.292-2.372 1.032-5.644-2.616-6.84l-6.272-2.24a8.7 8.7 0 0 0-0.088-1.644l4-0.656c7.84 1.24 15.416-0.4 22.98-2.116 0.6 0.072 1.18 0.212 1.752 0.412l0.02 6.112-0.004 0.004c-2.56 0.208-6.848-0.044-5.576 3.54 3.2 9.012 3.564 19.848 13.744 25.116zM73.38 700.344c-6.82 18.812-12.408 37.884-12.116 58.172-11.172 0.124-22.348 0.496-33.516 0.292-8.892-0.168-15.136-4.632-15.484-13.92-0.368-9.76-2-19.488-0.744-29.332 1.808-14.152 5.016-17.296 19.24-17.836 3.38-0.128 6.756-0.24 10.136-0.36l0.996 0.244 1.02-0.064c3.028 1.768 5.372 5.012 9.748 3.576 6.788-2.228 13.784-1.156 20.72-0.772zM538.64 755.54l-43.012 0.684 0.472-58.384c18.216-0.592 36.54 1.38 54.64-2.22-6.332 17.192-12.216 34.488-12.112 53.144 0 2.26 0.004 4.516 0.012 6.776z" fill="#2F2E2E" p-id="4419"></path><path d="M260.604 802.228c-14.468-0.432-23.356-7.796-27.184-22.552-2.712-10.46-4.752-21.152-8.2-31.364-10.44-30.944-35.34-48.52-67.812-48.584-2.044-0.004-4.088 0.016-6.132-0.02-5.444-0.076-11.428-1.744-12.604-6.788-1.28-5.504 5.388-7.312 9.408-8.556 7.352-2.26 13.472-8.556 21.992-7.02-0.912 6.172 4.232 7.096 8.004 8.916 15.676 7.564 29.936 16.368 41.276 30.444 13.972 17.348 20.84 37.664 28.432 57.788 3.74 9.908 6.584 11.968 16.72 8.144 2.1-0.796 3.156 0.144 4.168 1.64-1.336 6.596-3.556 12.788-8.068 17.952zM731.336 808.704c-13.34-10.984-15.724-26.556-19.196-42.3-5.324-24.112-17.468-44.992-37.404-60.164-12.26-9.34-27.5-11.02-42.388-12.504-4.624-0.456-9.872-0.404-10.868-5.46-1.04-5.272 4.884-6.152 8.328-7.272 8.972-2.908 17.912-6.568 27.708-5.62-0.832 6.392 4.664 7.752 8.464 10.052 6.136 3.704 12.276 7.252 17.284 12.528 21.556 22.712 39.188 47.58 43.328 79.684 1.184 9.132 5.312 13.684 14.836 12.16-0.724 7.7-5.308 13.352-10.092 18.896z" fill="#5A5A5A" p-id="4420"></path><path d="M268.672 784.28c-1.012-1.496-2.068-2.436-4.168-1.64-10.14 3.824-12.984 1.76-16.72-8.144-7.592-20.124-14.46-40.44-28.432-57.788-11.34-14.08-25.6-22.884-41.276-30.444-3.772-1.82-8.916-2.748-8.004-8.916 12.248-0.472 24.472-0.572 36.528 2.168 0.252 2.584 1.68 3.864 4.28 3.844l3.936 0.232 4.304 7.912c-3.56 3.024-4.7 6.568-1.82 10.6 6.832 9.552 12.152 20.192 21.044 28.268 3.056 2.776 5.656 4.728 9.592 2.084 2.708 1.248 3.76 3.58 4.136 6.344-1.408 9.576 0.748 13.276 11.916 10.692 8.612-1.996 18.212-1.704 27.3 0.268l-0.256 0.14c-6.788 7.036-16.088 0.552-25.168 4.908 8.82 2.336 9.432 8.12 8.468 14.62-4.416 3.984-2.324 10.452-5.66 14.852zM831.368 712.044c8.42 0.568 16.888-1.032 25.324 1.192 7.056 1.856 14.216 2.556 14.032 12.624-0.08 4.272 4.52 4.556 7.632 5.496 11.716 3.544 23.872 4.92 35.984 5.096 30.92 0.444 61.856 0.184 92.784 0.204-0.436 3.14-0.592 6.388-3.248 8.696-2.744-3.736-6.78-2.532-10.376-2.544-22.472-0.088-44.956 0.156-67.428-0.084-28.556-0.312-57.084 0.312-85.576 2.112-7.232 0.456-9.724-2.216-9.276-9.296 0.488-7.804 0.136-15.664 0.148-23.496z" fill="#767574" p-id="4421"></path><path d="M989.168 677.724c1.776-0.744 3.848-2.38 3.872 1.524 0.024 3.72 0.188 7.436 0.292 11.152a3.18 3.18 0 0 0-0.376 0.988c-14.992 0.1-29.988 0.108-44.98 0.352-4.756 0.076-7.78-0.728-7.708-6.564 0.288-22.476 0.276-44.96 0.376-67.44 4.6-0.744 9.764 1.996 13.8-2.228l24.496 0.584c0.568 0.976 1.176 1.024 1.836 0.088 8.604 3.524 11.056 10.892 12.48 20.636-4.412-2.444-8.392-3.132-12.452-3.232-9.748-8.1-24.628-4.656-27.372 6.688-2.244 9.268-1.728 18.624 0.584 28.012 1.44 5.844 4.2 8.992 10.268 8.956 8.24 2.956 16.536 2.952 24.884 0.484z" fill="#FD6D5C" p-id="4422"></path><path d="M786.332 358.404c-0.312 5.284 1.52 10.096 3.724 14.672 12.504 25.936 25.404 51.668 37.14 77.984 5.628 12.624 14.404 20.308 30.76 19.7 35.296-1.3 70.616-4.328 106-2.048-4.196 5.42-10.4 3.084-15.74 4.056-33.328 0.496-66.668 0.716-99.98 1.64-11.544 0.316-20.012-3.576-24.988-13.816-13.752-28.344-27.38-56.748-40.668-85.308-2.756-5.94-3.772-12.656 3.752-16.88z" fill="#2F2E2E" p-id="4423"></path><path d="M741.432 789.8c-9.524 1.524-13.652-3.028-14.836-12.16-4.14-32.104-21.772-56.972-43.328-79.684-5.008-5.272-11.148-8.824-17.284-12.528-3.8-2.296-9.296-3.66-8.464-10.052 5.404 0.696 10.808 1.4 16.212 2.092l24.512 12.056 0.016 0.004 2.092 4.04c-1.704 0.292-3.564 0.584-3.72 2.74-0.684 9.084 16.38 29.96 26.144 32.084 3.94 2.312 3.044 7.36 5.836 10.32 0.932 3.944-3.496 8.996 2.444 11.916 0.024 3.048-0.128 6.104 0.084 9.132 1.224 17.348 2.58 18.124 16.132 9.484 0.26-0.168 0.66-0.128 0.992-0.188-1.244 7.256-1.472 14.844-6.832 20.744z" fill="#767574" p-id="4424"></path><path d="M831.368 712.044c-0.012 7.832 0.34 15.692-0.144 23.496-0.444 7.084 2.048 9.752 9.276 9.296 28.492-1.8 57.02-2.424 85.576-2.112 22.472 0.244 44.956-0.004 67.428 0.084 3.592 0.012 7.632-1.192 10.376 2.544-1.432 2.772-3.876 4.204-6.756 5.04-0.856-0.94-1.432-0.628-1.848 0.416-14.976 2.848-30.108 1.396-45.18 1.668-1.728-6.036-6.74-3.504-10.296-3.528-34.44-0.18-68.892-0.196-103.332 0.012-6.084 0.036-10.2-0.868-9.076-8.212 1.328-10.244-2.504-20.844 2.168-30.844l1.808 2.14z" fill="#5A5A5A" p-id="4425"></path><path d="M496.1 697.84l-0.476 58.384-2.696 3.244c-5.2-3.94-5.412-9.616-5.568-15.44-0.596-22.708 1.204-45.448-1.704-68.14-1.448-11.316-4.664-14.992-17.056-15.008-39.088-0.048-78.18 0.036-117.268 0.06-2.036 0-4.076-0.124-6.104-0.188 1.888-1.792 4.224-2.044 6.664-2.048 42.996-0.084 85.988-0.24 128.984-0.24 9.652 0 14.176 5.66 14.588 14.868 0.368 8.16 0.436 16.34 0.636 24.508z" fill="#8A8A8A" p-id="4426"></path><path d="M303.208 226.888c-1.04 4.876-4.964 3.836-8.192 3.836-80.816 0.048-161.632 0.044-242.448 0.064-3.804 0.004-7.652 0.236-9.592-4.084 4.172-3.78 7.856-6.74 13.48-1.152 2.008 1.992 7.124 1.1 10.824 1.104 78.636 0.12 157.284 0.168 235.928 0.232z" fill="#E8E8E8" p-id="4427"></path><path d="M319.432 802.12c16.148 3.952 31.968 4.952 46.708-4.852 3.04-2.024 5.852-1.112 8.204 1.436 10.612 11.516 24.968 15.592 39.268 19.784-5.428 6.796-12.292 11.544-20.532 14.312-5.916-19.12-20.736-22.88-38.252-22.584-12.38 0.216-25.228 1.696-35.396-8.096z" fill="#3E3A3A" p-id="4428"></path><path d="M425.864 804.06c-1.4-1.836-3.44-2.168-5.456-1.892-14.204 1.976-19.768-7.356-23.992-18.32-2.28-5.92-2.444-10.632 6.22-10.572 3.596 0.032 7.204-1.308 10.808-2.024 2.932 13.044 7.724 14.892 17.272 6.58 2.272-1.98 4.16-4.48 7.592-4.408-1.376 11.336-5.392 21.604-12.444 30.636z" fill="#5A5A5A" p-id="4429"></path><path d="M233.34 830.752c-5.7-15.816-18.332-21.904-36.336-19.072-11.244 1.764-22.792 2.064-34.196 0.444-3.36-0.472-6.748-1.584-7.216-5.908 15.232 4.304 29.524 1.26 43.5-5.248 9.064-4.224 17.584-4.968 24.484 4.492 6.032 8.268 17.148 7.636 24.76 13.284-4.044 5.196-9.416 8.736-14.996 12.008z" fill="#3E3A3A" p-id="4430"></path><path d="M882.496 754.92c3.804-3.28 8.28-1.528 12.5-1.672-0.032 4.376 0.06 8.756-0.132 13.128-0.208 4.784 0.916 9.156 5.812 10.56 4.94 1.416 7.056-2.82 8.916-6.424 2.06-3.976 3.84-8.1 9.508-7.236-1.852 10.648-3.184 21.464-9.748 30.608-18.632 0.304-20.856-1.196-24.124-17.988-1.348-6.908-1.848-13.98-2.732-20.976z" fill="#767574" p-id="4431"></path><path d="M853.916 836.888c-0.096-5.936-1.484-11.668-1.308-17.82 0.192-6.756-6.488-10.808-14.408-10.92-11.396-0.16-23.06 1.996-34.028-3.196-2.388-1.132-5.476-1.208-5.532-4.884 15.468 2.604 30.884 4.656 45.644-3.224 2.496-1.332 6.488-1.74 7.444 0.732 3.72 9.56 16.376 14.168 14.568 26.688-0.424 2.964 1.204 5.2 3.948 6.496-4.756 3.856-10.448 5.244-16.328 6.128z" fill="#3E3A3A" p-id="4432"></path><path d="M522.24 232.74c-10.684-4-21.78-4.12-33.016-4.076-44.836 0.192-89.684 0.12-134.524 0.04-3.588-0.004-7.54 1.276-10.676-1.784 2.86-3.68 6.928-2.184 10.48-2.192 48.444-0.104 96.888-0.248 145.332 0.088 7.988 0.06 17.264-1.232 22.404 7.924z" fill="#E8E8E8" p-id="4433"></path><path d="M700.316 832.76c-0.708-6.304 6.836-10.94 3.096-18.136-5.048-9.688-11.452-12.608-24.62-9.768-10.564 2.28-21.16 4.104-32.036 3.412-3.232-0.204-7.124 0.904-7.888-4.072 13.144 1.584 25.276-0.928 37.168-7.104 21.084-10.94 34.284 3.944 34.528 30.956l-10.248 4.712z" fill="#3E3A3A" p-id="4434"></path><path d="M882.496 754.92c0.884 6.996 1.384 14.068 2.736 20.976 3.268 16.792 5.492 18.292 24.124 17.988-1.316 4.844-4.2 8.704-7.648 12.208-15.464 0.228-24.312-8.044-25.224-24.004-0.352-6.08-0.228-12.092-1.848-18.124-1.644-6.092 0.704-9.968 7.86-9.044z" fill="#5A5A5A" p-id="4435"></path><path d="M538.64 755.54l-0.016-6.772c5.044-8.916 13.032-11.392 22.628-10.336l20.372 17.628 0.004 0.836c-14.328-0.456-28.66-0.904-42.988-1.356z" fill="#3F3F3F" p-id="4436"></path><path d="M632.544 214.1H370.884l-0.004-1.156h261.64l0.024 1.156z" fill="#D3D3D3" p-id="4437"></path><path d="M919.1 763.276c-5.668-0.868-7.448 3.256-9.508 7.236-1.864 3.604-3.976 7.84-8.916 6.424-4.896-1.404-6.02-5.772-5.812-10.56 0.192-4.372 0.1-8.752 0.132-13.128 8.22-0.044 16.432-0.084 24.644-0.132-0.176 3.388-0.356 6.776-0.54 10.16z" fill="#8A8A8A" p-id="4438"></path><path d="M964.284 677.244c-6.072 0.036-8.828-3.112-10.268-8.956-2.308-9.388-2.824-18.744-0.584-28.012 2.744-11.344 17.624-14.788 27.372-6.688-6.584 1.312-15.056-2.528-18.704 6.824-5.9 12.668-5.14 24.94 2.184 36.832z" fill="#FD4D47" p-id="4439"></path><path d="M110.94 728.432l-5.936 30.536-2.768-0.544c-0.496-4.944-5.152-6.74-7.668-10.148-2.072-2.808-7.32-4.62-5.496-8.628 1.992-4.372 5.532-8.368 11.1-9.236 3.604-0.56 7.176-1.316 10.768-1.98z" fill="#767574" p-id="4440"></path><path d="M748.268 769.06c-0.332 0.06-0.732 0.02-0.992 0.188-13.556 8.64-14.912 7.864-16.132-9.484-0.216-3.028-0.064-6.084-0.084-9.128 4.26-0.088 8.612-0.692 12.308 2.28 2.088 0.752 4.18 1.5 6.272 2.244-0.484 4.628 0.5 9.408-1.372 13.9z" fill="#8A8A8A" p-id="4441"></path><path d="M438.312 773.424c-3.432-0.076-5.324 2.424-7.592 4.408-9.548 8.312-14.34 6.464-17.272-6.58 2.584-0.064 4.104-1.272 4.292-3.948 7.44 0.276 14.856-4.208 22.32-0.136 0.516 2.392-0.264 4.424-1.748 6.256z" fill="#767574" p-id="4442"></path><path d="M42.912 697.54l-1.02 0.064-0.996-0.244c-0.348-32.908-0.772-65.816-0.992-98.732-0.056-7.828 1.604-15.412 5.42-22.376 2.956-2.084 6.328-1.336 9.584-1.38-9.36 5.772-12.116 14.34-12.008 25.024 0.328 32.544 0.052 65.096 0.012 97.644z" fill="#FD4D47" p-id="4443"></path><path d="M145.64 214.68h132.692l0.004 1.156H145.588l0.052-1.156z" fill="#D3D3D3" p-id="4444"></path><path d="M964.284 677.244c-7.324-11.892-8.084-24.164-2.184-36.832 0.604 6.356 1.368 12.708 1.772 19.076 0.944 14.82 4.204 17.96 19.2 18.068 2.032 0.012 4.064 0.108 6.092 0.172-8.344 2.464-16.64 2.468-24.88-0.484z" fill="#8A8A8A" p-id="4445"></path><path d="M440.056 767.168c-7.464-4.072-14.876 0.416-22.32 0.136-4.648-3.992-10.204-1.248-15.284-2.044-3.788-0.584-8.036 1.432-11.312-2.02 25.168-0.02 50.336-0.116 75.504 0 5.476 0.024 10.816-0.472 16.128-1.708 0.128 6.456-4.916 3.828-7.792 4.084-11.608 1.048-23.388-1.544-34.924 1.552z" fill="#3E3A3A" p-id="4446"></path><path d="M954.444 615.508c-4.036 4.224-9.2 1.484-13.8 2.228-0.016-3.376-0.02-6.752-0.028-10.124 4.488-0.256 9.16 0.792 13.292-1.912l0.536 9.808z" fill="#FD4D47" p-id="4447"></path><path d="M106.292 218.052H65.356l-0.008-1.16h40.836l0.108 1.16z" fill="#D3D3D3" p-id="4448"></path><path d="M30.732 562.488c5.632 1.204 9.048 4.608 10.196 10.264-5.164-1.668-9.188-4.468-10.196-10.264z" fill="#8A8A8A" p-id="4449"></path><path d="M542.524 249.296c-3.936-0.308-4.048-3.18-4.096-6.096 2.916 0.984 4.244 3.044 4.096 6.096zM530.368 236.904c-2.592-0.02-3.988-1.332-4.244-3.896 2.776-0.184 4.132 1.18 4.244 3.896z" fill="#E8E8E8" p-id="4450"></path><path d="M482.12 761.448c0.84-0.488 1.632-1.16 2.54-1.416 0.908-0.256 1.324 0.592 0.516 1.148-0.708 0.484-1.848 0.34-2.808 0.472a6.76 6.76 0 0 1-0.248-0.204z" fill="#3E3A3A" p-id="4451"></path><path d="M980.776 616.18c-0.66 0.932-1.268 0.888-1.836-0.088a2.184 2.184 0 0 1 1.836 0.088z" fill="#FD4D47" p-id="4452"></path><path d="M995.272 750.804c0.416-1.044 0.992-1.356 1.848-0.416l-0.872 0.448-0.976-0.032z" fill="#3F3F3F" p-id="4453"></path><path d="M570.528 545.988l0.008-16.3c-0.272-49.484-0.556-98.96-0.816-148.44-0.032-6.056-0.284-12.172 3.44-17.496 7.508 3.26 8.476 9.824 8.388 16.828-1 78.256 3.512 156.468 2.088 234.736-0.228 12.592 0.02 25.2 0.048 37.792l-12.164 11.964-0.168-96.264c-0.88-4.108 1.824-8.708-1.728-12.444-1.02-3.572 3.06-6.704 0.904-10.376z" fill="#8E2626" p-id="4454"></path><path d="M569.624 556.364c3.552 3.74 0.848 8.336 1.728 12.444h-18.648c0.776-5.24-2.124-6.884-6.612-6.248-31.452 4.496-63.28-0.588-94.736 3.772-3.352 0.468-6.812 0.22-10.22 0.22-112.268 0.032-224.536 0.036-336.804 0.104-14.852 0.008-29.66 4.096-44.576 0.032-4.716-1.284-10.376-0.076-12.768-6.076 11.388 2.632 22.972 1.972 34.504 1.972 89.668-0.024 179.348 0.828 269-0.44 53.112-0.756 106.276-0.1 159.308-2.336 19.852-0.84 39.792-3.44 59.824-3.444z" fill="#8A8A8A" p-id="4455"></path><path d="M940.616 607.608c0.008 3.376 0.012 6.752 0.028 10.124-0.096 22.48-0.084 44.964-0.376 67.44-0.076 5.836 2.948 6.636 7.708 6.564 14.992-0.244 29.988-0.248 44.98-0.352-2.14 3.268-5.504 2.14-8.408 2.16-53.168 0.364-106.296 3.308-159.484 2.148l-8.196-0.768c0.16-0.54 0.36-1.068 0.592-1.584 0.64 0.052 1.264-0.016 1.884-0.2 9.18 0.144 18.364 0.432 27.548 0.404 24.556-0.08 24.556-0.132 22.988-25.264l0.004-20.9c-0.256-9.544 2.656-19.276-1.732-28.572l-0.008-50.672c15.04-2.592 30.256-0.472 45.352-1.684 21.208 0.872 26.424 6.4 26.632 28.088 0.052 4.36 0.324 8.708 0.488 13.068z" fill="#767574" p-id="4456"></path><path d="M913.5 566.456c-15.092 1.212-30.312-0.912-45.356 1.684-11.556 0.464-17.416 5.876-18.212 18.276-0.628 9.764-0.108 19.608-0.096 29.416l-11.176-0.024c-16.344 0-19.484 3.092-19.472 19.416 0.012 19.304 0.1 38.612 0.16 57.916a5.184 5.184 0 0 1-1.888 0.2c-0.096-2.044-0.26-4.084-0.272-6.128-0.084-17.4-0.628-34.816-0.004-52.188 0.38-10.64-9.616-4.488-13.164-9.168-1.452-1.916-2.876 2.24-3.064 4.524l-0.644 62.804-7.736 0.196c-0.74-26.704-1.656-53.408-2.092-80.112-0.12-7.412 2.672-15.072 1.572-22.228-3.004-19.388-1.608-38.784-1.528-58.144 0.108-23.284-7.632-44.668-14.696-66.156-2.092-6.376-2.756-13.392-6.272-19.208-11.284-18.656-19.084-38.96-28.136-58.668-9.848-21.428-25.864-33.548-50.096-33.068-28.816 0.572-57.624 1.332-86.436 1.924-8.948 0.184-16.98-1.756-21.432-10.708 0.736-1.928 2.144-3.124 4.076-3.772 1.832 0.04 3.492-0.184 3.728-2.52l0.032-0.188c35.092 1.756 70.216 0.82 105.316 0.544 17.864-0.144 29.584 8.688 40.924 20.868 18.484 19.848 25.244 45.5 36.064 69.132 5.756 12.584 11.512 25.12 18.736 36.94 10.044 16.428 13.9 34.656 14.352 53.5 0.584 23.856 0.672 47.756-0.104 71.604-0.324 10.028 4.112 13.396 12.708 14.372 21.364 2.428 22.24 1.548 22.428-20.164 0.068-7.392-1.172-14.832 2.444-22.084 2.84-5.696 7.088-8.016 12.852-8.168 13.84-0.364 27.712-0.08 41.524-0.848 8.14-0.444 12.996 2.38 14.96 10.228z" fill="#FD4D47" p-id="4457"></path><path d="M583.452 347.016c4.452 8.952 12.484 10.892 21.432 10.708 28.812-0.592 57.62-1.356 86.436-1.924 24.236-0.48 40.248 11.64 50.096 33.068 9.056 19.712 16.852 40.012 28.136 58.668 3.516 5.816 4.18 12.832 6.272 19.208 7.064 21.484 14.804 42.868 14.696 66.156-0.084 19.36-1.476 38.756 1.528 58.144 1.1 7.156-1.692 14.816-1.572 22.228 0.436 26.708 1.356 53.412 2.092 80.112l-17.924 0.016c-3.532-11.744-12.492-19.572-19.764-28.832-29.412-37.44-83.288-45.8-125.948-34.056-1.788-0.268-3.328 0.084-4.356 1.728a3.376 3.376 0 0 0-1.752 0.5c-14.244 3.208-26.58 9.916-36.996 20.152l-2.148 0.228c-0.028-12.6-0.272-25.208-0.048-37.8 1.42-78.264-3.088-156.476-2.088-234.736 0.088-7.004-0.88-13.568-8.388-16.828 1.68-6.66 4.512-12.608 10.296-16.74z m10.32 115.28l-0.048-0.044c0.036 1.36 0.732 2.06 2.092 2.092l-0.048-0.044c0.036 1.36 0.732 2.06 2.088 2.084l-0.052 0.004c2.936 6.748 9.172 5.96 14.66 5.972 39.344 0.084 78.688-0.136 118.028 0 6.824 0.024 11.788-2.248 15.196-8.072 2.212-1.668 1.804-4.032 1.692-6.324 4.128-4.32 0.772-8.624-0.72-12.308-7.756-19.2-15.616-38.38-24.244-57.204-6.48-14.156-18.364-21.956-33.916-22.252-25.532-0.488-51.084-0.164-76.612 0.012-5.3 0.036-10.988-0.1-14.192 5.608-8.796 2.496-11.252 10.436-11.452 17.392-0.572 20.156-2.292 40.432 1.296 60.528 0.068 2.34-0.6 4.92 2.096 6.404l-0.052-0.072c-0.036 1.76 0.152 3.404 2.096 4.172l-0.028-0.06c0.18 1.244 0.764 2.068 2.12 2.112z m34.812 67.252c4.824-8.156 1.564-16.92 1.768-25.404 0.08-3.08-3.108-3.048-5.472-3.056-9.804-0.04-19.604 0.056-29.408-0.04-4.604-0.044-5.996 2.244-5.236 6.4 0.484 2.652 1.048 5.284 1.58 7.92-0.336 17.448-1.048 14.1 14.488 14.372 7.424 0.132 14.848-0.12 22.28-0.192z" fill="#B6342F" p-id="4458"></path><path d="M591.252 340.728c-0.236 2.336-1.896 2.56-3.728 2.52 1.24-0.844 2.484-1.68 3.728-2.52z" fill="#FD6D5C" p-id="4459"></path><path d="M42.912 697.54c0.04-32.548 0.316-65.096-0.012-97.64-0.108-10.684 2.648-19.248 12.008-25.024 153.56-1.008 307.112-3.072 460.684-2.264 3.736 0.06 7.464 0.148 11.192 0.176 20.736 0.164 28.152 7.556 28.16 28.176 0.008 28.824-0.016 57.648-0.024 86.468-0.308 3.284-1.532 6.1-4.18 8.192-18.096 3.596-36.42 1.624-54.64 2.22-0.2-8.168-0.268-16.348-0.636-24.512-0.416-9.208-4.936-14.868-14.588-14.868-42.996 0-85.992 0.152-128.984 0.24-2.436 0.004-4.776 0.252-6.664 2.048-7.092-0.06-8.32 5.252-9.64 10.496-3.392 6.696-1.4 13.86-1.52 20.776-0.1 5.636-1.904 7.8-7.644 7.676-11.128-0.236-22.264 0.084-33.4 0.176-2.844-8.908-9.544-15.388-14.576-22.892-27.708-41.312-84.796-59.696-130.816-42.372-26.272 8.028-47.484 22.752-61.744 46.672l0.104-0.076-2.1 2.196 0.096-0.112-1.78 2.064a3.632 3.632 0 0 0-0.264 1.504l-2.084 2.956-6.48 10.528c-6.936-0.38-13.932-1.452-20.724 0.772-4.372 1.436-6.72-1.808-9.744-3.576z" fill="#8E2626" p-id="4460"></path><path d="M382.904 763.268c-0.364 0.92-0.668 2.628-1.104 2.664-12.74 1.056-25.708 4.876-37.804-2.756l38.908 0.092z" fill="#3E3A3A" p-id="4461"></path><path d="M550.74 695.62c2.648-2.088 3.872-4.908 4.18-8.192l2.44-2.156 1.732-1.784 1.712-2.224c3.876 0.372 6.432-2.432 8.912-4.44 11.46-9.304 24.548-15.664 37.772-21.844 35.052-16.38 78.936-8.484 106.752 18.576 16.888 16.424 26.212 36.848 33.42 58.628-6.496 1.756-13.86 0.972-19.048 6.532-2.792-2.96-1.896-8.008-5.836-10.32-2.708-14.676-10.916-25.812-22.424-34.824l-2.092-4.04c5.712-0.916 8.352 3.572 11.868 6.62 1.584 1.372 3.108 4.556 5.72 1.948 1.704-1.704 0.248-3.792-1.096-5.392-14.208-16.816-31.404-29.316-53.7-31.568-17.524-1.768-35.172-1.496-50.012 11.368-10.064 8.724-19.416 16.92-13.916 32.22 1.232 3.424-2.188 6.184-3.376 9.28-3.028 2.744-4.088 6.252-4.016 10.212a13.004 13.004 0 0 1-1.896 0.18c-13.208-9.216-18.324-7.9-24.796 6.232-1.152 2.52-2.144 4.976-1.784 7.796-9.596-1.056-17.584 1.416-22.628 10.336-0.104-18.656 5.78-35.952 12.112-53.144z" fill="#5A5A5A" p-id="4462"></path><path d="M619.968 754.764c0.5-15.988 11.216-26.952 25.976-26.576 14.628 0.38 25.752 13.032 25.384 28.856-0.336 14.228-13.008 26.512-27.16 26.332-13.616-0.164-24.684-13.252-24.2-28.612z" fill="#ABABAB" p-id="4463"></path><path d="M589.732 724.224c-0.076-3.956 0.988-7.468 4.016-10.212 10.444 2.664 6.256 12.152 7.944 18.484 1.6 5.992 0.668 12.764 0.292 19.164-0.98 16.6 4.768 30.332 16.784 41.648 1.452 1.36 2.512 3.136 3.752 4.716-11.104-0.76-14.752-10.048-18.808-17.78-6.792-12.964-9.392-27.324-9.74-41.92-0.124-5.268-0.688-10.036-4.24-14.1z" fill="#3E3A3A" p-id="4464"></path><path d="M698.244 689.528l-24.512-12.056c9.204-1.5 20.368 3.988 24.512 12.056z" fill="#5A5A5A" p-id="4465"></path><path d="M194.48 759.084c0.092 14.616-11.084 26.58-25.088 26.84-14.992 0.28-26.148-11.48-26.264-27.696-0.116-15.684 11.512-27.856 26.492-27.732 13.216 0.112 24.76 13.388 24.86 28.588z" fill="#ABABAB" p-id="4466"></path><path d="M128.984 781.64c-5.34-0.752-5.788-5.32-6.58-9.124-2.184-10.532-6.404-20.736-5.676-31.768 0.312-4.744-2.328-8.4-4.132-12.38 0.708-5.96 1.836-11.688 8.084-14.576 2.432 10.5 4.936 21.036 4.156 31.912-0.884 12.272 0.972 24.164 4.148 35.936zM145.376 802.092c-3.924-0.156-5.96-2.212-6.144-6.12 3.896 0.18 5.944 2.224 6.144 6.12zM153.56 806.204c-2.98 0.044-5.944 0.06-6.148-4.084 2.952 0 5 1.364 6.148 4.084z" fill="#3E3A3A" p-id="4467"></path><path d="M210.88 683.356c-2.6 0.02-4.028-1.256-4.28-3.844 2.864-0.324 4.216 1.052 4.28 3.844z" fill="#5A5A5A" p-id="4468"></path><path d="M137.176 793.916c-2.664-0.068-4.028-1.42-4.072-4.096 2.648 0.088 4.008 1.448 4.072 4.096z" fill="#3E3A3A" p-id="4469"></path><path d="M85.888 681.28c14.26-23.92 35.472-38.644 61.744-46.672 5.66 3.536 11.924 1.688 17.788 1.456 26.836-1.052 50.22 7.8 71.472 23.5 8.112 5.992 12.996 15.652 22.68 19.828 4.304 8.536 8.196 17.316 14.784 24.472 1.732 13.088 9.296 23.296 16.34 33.856 1.552 2.328 7.364 5.692 0.56 9.048-7.992-1.472-11.884-9.32-18.968-12.2-2.208-23.624-14.924-42.1-30.812-58.06-36.048-36.208-93.304-40.452-135.344-11.476-7.188 4.956-10.936 14.06-20.244 16.248z" fill="#8A8A8A" p-id="4470"></path><path d="M247.936 732.452c-3.94 2.64-6.54 0.692-9.592-2.084-8.896-8.08-14.216-18.72-21.044-28.268-2.88-4.036-1.74-7.58 1.82-10.6 15.932 9.192 24.196 23.796 28.816 40.952z" fill="#8A8A8A" p-id="4471"></path><path d="M272.288 734.572c7.084 2.88 10.976 10.728 18.968 12.204l0.036 2.984c-9.088-1.972-18.688-2.264-27.3-0.268-11.168 2.584-13.324-1.116-11.916-10.692 6.656-1.812 12.984-5.164 20.212-4.228z" fill="#3F3F3F" p-id="4472"></path><path d="M83.892 683.404l2.1-2.196-2.1 2.196zM82.208 685.352l1.78-2.064-1.78 2.064zM79.86 689.812l2.084-2.956-2.084 2.956z" fill="#8A8A8A" p-id="4473"></path><path d="M816.872 694.924l8.196 0.768c1.492 4.736 2.992 9.472 4.492 14.208-4.672 10-0.84 20.6-2.168 30.844-3.348-1.756-1.024-5.752-3.144-8.16-0.376 0.524-0.916 0.924-0.928 1.348-0.668 21.084-0.66 21.084-21.664 21.088h-29.62l-0.02-6.112c9.588 1.064 11.916-3.604 9.52-12.036-0.824-2.912-1.568-5.852-2.344-8.776-0.744-5.424-4.696-10.148-3.484-16.004 8.684-1.136 5.584 6.236 7.624 11.38l1.676-7.212 1.556 0.124v32.26c1.86-9.768 2.5-19.592 1.64-29.284-0.596-6.736 3.972-5.748 7.372-6.604 5.6-1.42 4.72 2.888 5.132 6.168 0.832 6.56-2.076 13.508 2.04 19.716l-0.012-0.012c0.224 3.104 1.392 5.72 4.116 9.076 0-8.528-0.164-15.608 0.052-22.672 0.18-5.948-1.928-12.656 2.68-17.488 3.568-3.752 3.424-7.732 3.396-12.068 1.292-0.184 2.596-0.364 3.892-0.552z" fill="#3E3A3A" p-id="4474"></path><path d="M291.292 749.756l-0.036-2.984c6.808-3.36 0.996-6.724-0.556-9.052-7.044-10.56-14.608-20.764-16.34-33.856a188 188 0 0 1 2.12-0.108l0.792 0.468-0.9-0.356c1.088-11.072-6.576-17.848-12.592-25.364-1.344-1.68-3.028-0.54-4.204 0.888-9.684-4.176-14.564-13.836-22.676-19.828-21.252-15.7-44.632-24.552-71.472-23.5-5.864 0.232-12.128 2.08-17.788-1.456 46.02-17.324 103.108 1.06 130.816 42.372 5.032 7.504 11.732 13.984 14.576 22.892 4.968 12.12 9.176 24.352 10.684 37.56 1.664 14.568 2.176 14.508-12.68 12.472a5.336 5.336 0 0 1 0.256-0.148z" fill="#ABABAB" p-id="4475"></path><path d="M292.828 757.104c-1.588 4.084 3.36 8.168-0.012 12.244-0.94-4.084-8.4-8.168 0.012-12.244zM294.888 777.536c2.66 0.084 4.008 1.456 4.06 4.116-2.652-0.088-4.024-1.444-4.06-4.116zM313.288 798.024c2.656 0.064 4.024 1.412 4.104 4.076-2.668-0.048-4.028-1.416-4.104-4.076zM780.204 783.688c-10.18-5.264-10.544-16.104-13.752-25.12-1.272-3.584 3.016-3.332 5.576-3.54-1.492 10.752 5.164 19.188 8.176 28.66zM798.636 800.064c-9.3-0.704-15.356-5.592-18.396-14.34 7.792 2.656 12.316 9.5 18.396 14.34zM841.82 754.4c1.864-1.8 3.936-1.8 6.12-0.628-1.824 2.412-4.024 0.48-6.12 0.628z" fill="#3E3A3A" p-id="4476"></path><path d="M561.252 738.428c-0.36-2.82 0.632-5.276 1.784-7.796 6.472-14.128 11.588-15.444 24.796-6.232-5.092 9.956-2.388 21.448-6.212 31.656a30799.38 30799.38 0 0 0-20.368-17.628z" fill="#767574" p-id="4477"></path><path d="M560.796 681.264l-1.708 2.224-1.732 1.784-2.44 2.156c0.008-28.82 0.032-57.644 0.024-86.468-0.008-20.62-7.424-28.012-28.16-28.176-3.728-0.028-7.456-0.116-11.192-0.176 12.084-4.128 24.536-4.612 37.112-3.8h18.648l0.168 96.264c-3.624 5.364-8.756 9.732-10.72 16.192z" fill="#B6342F" p-id="4478"></path><path d="M779.188 728.096c0.776 2.924 1.52 5.868 2.344 8.776 2.396 8.428 0.072 13.096-9.52 12.036a8.324 8.324 0 0 0-1.752-0.412c-0.46-2.268-1.768-3.596-4.148-3.752l-12.596-10.108c0.796-4.592-0.788-8.852-2.448-12.876-7.552-18.304-17.208-35.096-31.6-49.276-34.34-33.808-74.092-38.836-118.4-24.92-5.16 1.624-8.792 7.696-15.228 5.332 10.416-10.24 22.752-16.948 36.992-20.156 0.876 0.86 1.348 0.304 1.752-0.5 1.028-1.644 2.568-1.996 4.348-1.728 2.548 2.52 5.78 1.604 8.728 1.56 35.156-0.564 64.972 11.36 88.948 37.424 2.884 3.132 5.268 7.308 10.28 7.788 3.588 8.476 8.472 16.132 14.484 23.084 2.168 16.376 14.828 22.216 27.816 27.728z" fill="#8A8A8A" p-id="4479"></path><path d="M753.512 734.636l12.596 10.108c-5.832 3.156-13.056 0.068-18.668 4.184-1.848-0.032-3.52 0.252-4.168 2.344 0.084 0.548 0.116 1.092 0.092 1.644-3.696-2.976-8.048-2.376-12.308-2.284-5.94-2.92-1.512-7.972-2.444-11.916 5.188-5.56 12.552-4.772 19.044-6.528 1.948 0.82 3.908 1.632 5.856 2.448z" fill="#3F3F3F" p-id="4480"></path><path d="M747.44 748.928c5.612-4.116 12.836-1.028 18.668-4.184 2.38 0.156 3.688 1.484 4.148 3.752-7.564 1.72-15.14 3.356-22.98 2.12l0.164-1.688z" fill="#5A5A5A" p-id="4481"></path><path d="M747.44 748.928c-0.06 0.568-0.112 1.128-0.164 1.692l-4 0.652c0.644-2.088 2.316-2.372 4.164-2.344z" fill="#767574" p-id="4482"></path><path d="M700.352 693.572c11.512 9.012 19.72 20.148 22.424 34.824-9.764-2.124-26.828-23.004-26.144-32.084 0.156-2.16 2.016-2.448 3.72-2.74z" fill="#8A8A8A" p-id="4483"></path><path d="M753.512 734.636c-1.948-0.816-3.908-1.628-5.856-2.448-7.208-21.784-16.532-42.208-33.416-58.632-27.816-27.06-71.704-34.952-106.752-18.576-13.228 6.18-26.312 12.54-37.772 21.844-2.476 2.008-5.036 4.812-8.912 4.44 1.96-6.46 7.088-10.828 10.72-16.192l12.164-11.964 2.148-0.22c6.436 2.368 10.072-3.704 15.232-5.328 44.304-13.916 84.06-8.888 118.4 24.92 14.396 14.18 24.052 30.972 31.6 49.276 1.656 4.028 3.24 8.288 2.444 12.88z" fill="#767574" p-id="4484"></path><path d="M819.348 693.144c-0.06-19.304-0.148-38.612-0.16-57.916-0.012-16.32 3.128-19.416 19.472-19.416l11.176 0.024c6.2 0.432 12.752-1.312 18.32 2.976 4.388 9.292 1.472 19.028 1.732 28.568-3.688-7.532-8.572-13.212-18.088-11.748-5.92-7.032-13.808-3.7-20.42-2.692-5.6 0.848-6.112 7.348-6.132 12.6-0.028 6.796 0.048 13.588-0.024 20.384-0.084 8.176 3.904 12.612 12 13.424l4.5-0.14-0.076-0.052c0.184 1.56 1.284 1.808 2.564 1.812 11.208 1.112 21.52 0.448 25.676-12.696 1.568 25.136 1.568 25.192-22.988 25.268-9.188 0.04-18.372-0.252-27.552-0.396z" fill="#FD6D5C" p-id="4485"></path><path d="M851.796 635.632c9.52-1.464 14.404 4.216 18.088 11.748l-0.004 20.904c-4.156 13.14-14.468 13.804-25.676 12.692-0.856-0.6-1.708-1.204-2.564-1.812l0.076 0.052c-6.412-10.748-3.736-23.708-8.496-34.852 3.076-9.552 11.18-8.38 18.576-8.732z" fill="#FEFEFE" p-id="4486"></path><path d="M816.872 694.924c-1.296 0.188-2.596 0.368-3.9 0.552-3.412-0.704-7.348 1.472-10.288-1.844 0.032-12.48 0.38-24.972-0.016-37.436-0.276-8.604 1.992-17.428-1.708-25.808 0.184-2.288 1.604-6.444 3.06-4.528 3.548 4.68 13.544-1.472 13.164 9.168-0.624 17.372-0.08 34.788 0.004 52.188 0.012 2.044 0.176 4.084 0.272 6.128a13.412 13.412 0 0 0-0.588 1.58z" fill="#B6342F" p-id="4487"></path><path d="M868.156 618.812c-5.572-4.288-12.12-2.544-18.32-2.976-0.012-9.808-0.532-19.652 0.096-29.416 0.792-12.404 6.656-17.812 18.212-18.276l0.012 50.668z" fill="#3E3A3A" p-id="4488"></path><path d="M802.684 693.632c2.94 3.316 6.88 1.14 10.288 1.844 0.032 4.336 0.172 8.312-3.396 12.068-4.608 4.832-2.5 11.54-2.68 17.488-0.216 7.064-0.052 14.144-0.052 22.672-2.728-3.356-3.896-5.968-4.116-9.076 4.248-7.888 1.028-15.96 0.012-23.976v23.988c-4.112-6.208-1.208-13.156-2.04-19.716-0.416-3.28 0.468-7.588-5.132-6.168-3.4 0.86-7.968-0.128-7.372 6.604 0.86 9.692 0.22 19.516-1.64 29.284v-32.26l-1.556-0.124-1.676 7.212c-2.04-5.144 1.06-12.516-7.62-11.38-1.692-4.028-3.356-8.068-5.064-12.084-1.744-4.088-0.816-6.52 4.008-6.608l17.924-0.016 7.736-0.196 2.376 0.444z" fill="#2F2E2E" p-id="4489"></path><path d="M802.684 693.632l-2.372-0.444 0.644-62.804c3.704 8.384 1.432 17.208 1.712 25.812 0.396 12.464 0.048 24.956 0.016 37.436z" fill="#8E2626" p-id="4490"></path><path d="M747.388 457.972c0.112 2.288 0.52 4.656-1.696 6.324-15.424 5.212-31.412 3.956-47.264 3.992-27.52 0.056-55.028-0.06-82.544 0.076-6.136 0.032-12.152-0.324-18.072-1.968l0.052-0.004a341.988 341.988 0 0 1-2.088-2.084l0.048 0.044a515.772 515.772 0 0 1-2.048-2.048c-0.7-0.704-1.408-1.404-2.104-2.108l0.028 0.06c0.056-1.772-0.276-3.344-2.096-4.172l0.052 0.072c0.084-2.392 0.416-4.864-2.096-6.404-3.588-20.096-1.868-40.372-1.296-60.528 0.2-6.956 2.656-14.896 11.456-17.388 4.676-0.596 9.348-1.688 14.028-1.724 24.124-0.188 48.248-0.2 72.372-0.084 15.476 0.072 26.456 7.456 32.608 21.564 5.96 13.664 10.852 27.832 17.464 41.156 4.188 8.464 4.9 18.892 13.196 25.224z" fill="#473D2B" p-id="4491"></path><path d="M774.652 693.4c-4.824 0.088-5.752 2.52-4.008 6.608 1.708 4.02 3.372 8.06 5.064 12.084-1.216 5.856 2.74 10.58 3.48 16.004-12.988-5.512-25.648-11.356-27.816-27.732 3.84-10.576-5.304-15.748-9.624-22.884-1.188-1.96-3.144-2.348-4.86-0.2-5.012-0.48-7.4-4.656-10.28-7.788-23.976-26.068-53.792-37.988-88.948-37.424-2.944 0.048-6.18 0.96-8.728-1.56 42.668-11.748 96.548-3.388 125.956 34.056 7.272 9.264 16.232 17.092 19.764 28.836z" fill="#ABABAB" p-id="4492"></path><path d="M747.388 457.972c-8.292-6.332-9.008-16.76-13.208-25.232-6.612-13.324-11.504-27.492-17.464-41.156-6.152-14.108-17.132-21.492-32.608-21.564-24.12-0.116-48.248-0.104-72.372 0.084-4.68 0.036-9.352 1.128-14.028 1.724 3.2-5.712 8.888-5.576 14.188-5.612 25.532-0.172 51.084-0.5 76.612-0.012 15.556 0.296 27.436 8.096 33.916 22.252 8.624 18.828 16.484 38.004 24.244 57.204 1.492 3.684 4.848 7.992 0.72 12.312z" fill="#5A5A5A" p-id="4493"></path><path d="M591.816 515.372c-0.532-2.636-1.092-5.268-1.58-7.92-0.76-4.156 0.628-6.444 5.236-6.4 9.8 0.092 19.6 0 29.408 0.04 2.364 0.008 5.552-0.024 5.472 3.056-0.208 8.48 3.056 17.248-1.768 25.404-5.68-7.528-13.752-3.628-20.596-3.652-8.312-0.024-14.872-0.652-16.172-10.528z" fill="#514430" p-id="4494"></path><path d="M597.812 466.392c5.916 1.644 11.932 2 18.072 1.968 27.516-0.136 55.024-0.02 82.544-0.076 15.856-0.032 31.84 1.22 47.264-3.992-3.404 5.824-8.368 8.092-15.192 8.072-39.34-0.136-78.684 0.084-118.028 0-5.488-0.012-11.72 0.772-14.66-5.972zM591.816 515.372c1.3 9.876 7.86 10.504 16.168 10.524 6.844 0.024 14.916-3.876 20.596 3.652-7.428 0.076-14.856 0.324-22.276 0.196-15.536-0.272-14.824 3.076-14.488-14.372zM587.548 449.744c2.512 1.54 2.184 4.012 2.096 6.404-2.7-1.484-2.032-4.064-2.096-6.404z" fill="#2F2E2E" p-id="4495"></path><path d="M589.592 456.076c1.82 0.828 2.152 2.4 2.096 4.172-1.94-0.768-2.128-2.412-2.096-4.172zM595.772 464.3l2.088 2.084c-1.356-0.024-2.052-0.72-2.088-2.084z" fill="#2F2E2E" p-id="4496"></path><path d="M593.728 462.248l2.092 2.092c-1.364-0.032-2.06-0.728-2.092-2.092z" fill="#2F2E2E" p-id="4497"></path><path d="M591.664 460.188c0.7 0.704 1.408 1.404 2.104 2.108-1.352-0.044-1.936-0.868-2.104-2.108z" fill="#2F2E2E" p-id="4498"></path><path d="M624.584 632.24c-0.408 0.804-0.88 1.36-1.752 0.5a3.364 3.364 0 0 1 1.752-0.5z" fill="#ABABAB" p-id="4499"></path><path d="M557.36 685.272l1.732-1.784-1.732 1.784z" fill="#767574" p-id="4500"></path><path d="M276.476 703.756l-2.12 0.108c-6.588-7.156-10.48-15.936-14.784-24.472 1.172-1.424 2.856-2.568 4.2-0.888 6.02 7.516 13.68 14.292 12.592 25.364l0.112-0.112zM276.364 703.872l0.9 0.356-0.792-0.468-0.108 0.112z" fill="#E8E8E8" p-id="4501"></path><path d="M736.888 677.284c1.716-2.148 3.672-1.76 4.86 0.2 4.32 7.136 13.464 12.308 9.624 22.884-6.012-6.952-10.896-14.608-14.484-23.084z" fill="#FEFEFE" p-id="4502"></path><path d="M851.796 635.632c-7.4 0.352-15.5-0.82-18.576 8.728-3.252 12.188-4.28 24.12 3.996 34.992-8.096-0.812-12.084-5.248-12-13.424 0.072-6.792-0.004-13.584 0.024-20.384 0.02-5.252 0.532-11.752 6.132-12.6 6.616-1.012 14.504-4.344 20.424 2.688z" fill="#FD4D47" p-id="4503"></path><path d="M837.22 679.352c-8.276-10.872-7.248-22.804-3.996-34.992 4.76 11.144 2.084 24.104 8.496 34.852l-4.5 0.14z" fill="#8A8A8A" p-id="4504"></path><path d="M841.644 679.16c0.856 0.608 1.708 1.212 2.564 1.812-1.28-0.004-2.38-0.252-2.564-1.812z" fill="#8A8A8A" p-id="4505"></path><path d="M802.744 738.64v-23.988c1.016 8.016 4.24 16.088-0.012 23.976l0.012 0.012z" fill="#3E3A3A" p-id="4506"></path></svg>