<svg t="1648695949435" class="icon" viewBox="0 0 1226 1024" version="1.1" xmlns="http://www.w3.org/2000/svg" p-id="7813" width="200" height="200"><path d="M53.964439 632.259963V136.676885h736.735745v510.052729" fill="#F0F0FF" p-id="7814"></path><path d="M766.175353 646.729614c0 13.552422 10.982219 24.524831 24.524831 24.524831s24.524831-10.97241 24.524831-24.524831V136.676885a24.524831 24.524831 0 0 0-24.524831-24.524831H53.964439a24.524831 24.524831 0 0 0-24.524831 24.524831v495.578173c0 13.567137 10.977315 24.524831 24.524831 24.524832s24.524831-10.957695 24.524831-24.524832V136.676885c0 13.557327-10.977315 24.524831-24.524831 24.524832h736.735745c-13.542612 0-24.524831-10.967505-24.524831-24.524832v510.052729z" fill="#6E6E96" p-id="7815"></path><path d="M234.015941 866.246475H53.954629l0.00981-219.516861h736.735745V336.976088h240.269773l134.611895 309.753526v219.516861h-130.18271" fill="#FFCD7F" p-id="7816"></path><path d="M1035.399142 841.721643a24.524831 24.524831 0 1 0 0 49.049663h130.18271c13.547517 0 24.524831-10.957695 24.524831-24.524831v-219.516861c0-3.364807-0.6916-6.690374-2.035561-9.780503L1053.464132 327.2103a24.524831 24.524831 0 0 0-22.494175-14.749233h-240.259963c-13.552422 0-24.524831 10.9626-24.524832 24.524831v309.733906c0-13.547517 10.97241-24.524831 24.524832-24.524832H53.964439a24.524831 24.524831 0 0 0-24.524831 24.524832L29.429798 866.24157c0 6.503985 2.584917 12.752912 7.185775 17.339055A24.475782 24.475782 0 0 0 53.954629 890.766401h180.061312c13.547517 0 24.524831-10.957695 24.524832-24.524831a24.524831 24.524831 0 0 0-24.524832-24.524832H53.954629a24.549356 24.549356 0 0 1 24.524831 24.524832l0.00981-219.516861a24.524831 24.524831 0 0 1-24.524831 24.524831h736.735745a24.524831 24.524831 0 0 0 24.524831-24.524831V336.980993a24.524831 24.524831 0 0 1-24.524831 24.524832h240.269773a24.544451 24.544451 0 0 1-22.494175-14.768854l134.602084 309.753526a24.622931 24.622931 0 0 1-2.035561-9.775598v219.516861a24.524831 24.524831 0 0 1 24.524832-24.524832l-130.167995 0.014715z" fill="#6E6E96" p-id="7817"></path><path d="M437.508277 841.721643h425.079093v49.049663H437.508277z" fill="#6E6E96" p-id="7818"></path><path d="M1165.581852 646.729614l-134.611895-309.753526h-240.264868v309.753526z" fill="#87DDF0" p-id="7819"></path><path d="M612.120172 257.760883h49.049662v269.773145h-49.049662zM173.939914 257.760883h49.049663v269.773145h-49.049663zM318.440221 257.760883h49.049663v269.773145h-49.049663zM466.060086 257.760883h49.049663v269.773145h-49.049663z" fill="#6E6E96" opacity=".32" p-id="7820"></path><path d="M71.293685 794.035561h1069.763335v54.871858H71.293685z" fill="#6E6E96" opacity=".15" p-id="7821"></path><path d="M355.379522 844.218271m-117.557327 0a117.557327 117.557327 0 1 0 235.114654 0 117.557327 117.557327 0 1 0-235.114654 0Z" fill="#F0F0FF" p-id="7822"></path><path d="M355.379522 986.300429c-78.347026 0-142.082158-63.735132-142.082158-142.082158s63.740037-142.087063 142.082158-142.087063 142.082158 63.740037 142.082158 142.087063-63.740037 142.082158-142.082158 142.082158z m0-235.114653c-51.296137 0-93.032495 41.736358-93.032496 93.0374 0 51.296137 41.736358 93.032495 93.032496 93.032495s93.032495-41.736358 93.032495-93.032495c0-51.305947-41.731453-93.0374-93.032495-93.0374z" fill="#6E6E96" p-id="7823"></path><path d="M358.263642 843.850399m-33.059473 0a33.059473 33.059473 0 1 0 66.118946 0 33.059473 33.059473 0 1 0-66.118946 0Z" fill="#6E6E96" p-id="7824"></path><path d="M1022.013489 362.011036l113.074187 260.193746h-221.233599l-98.629062-260.193746z" fill="#FFFFFF" opacity=".22" p-id="7825"></path><path d="M1023.323115 622.204782l-110.930718-260.703862h58.383814l113.854077 260.703862z" fill="#FFFFFF" opacity=".31" p-id="7826"></path><path d="M790.700184 671.254445h374.876763a24.544451 24.544451 0 0 0 20.517474-11.075414 24.534641 24.534641 0 0 0 1.976701-23.225015L1053.464132 327.2103a24.524831 24.524831 0 0 0-22.494175-14.749233h-240.259963c-13.542612 0-24.524831 10.9626-24.524832 24.524831v309.733906a24.510116 24.510116 0 0 0 24.515022 24.534641z m354.374004-37.979154a24.573881 24.573881 0 0 1 20.507664-11.075414h-374.876763a24.524831 24.524831 0 0 1 24.524831 24.524832V336.980993a24.524831 24.524831 0 0 1-24.524831 24.524832h240.264868a24.544451 24.544451 0 0 1-22.494175-14.768854l134.602084 309.753526a24.534641 24.534641 0 0 1 1.996322-23.215206z" fill="#6E6E96" p-id="7827"></path><path d="M955.286327 844.218271m-117.557326 0a117.557327 117.557327 0 1 0 235.114653 0 117.557327 117.557327 0 1 0-235.114653 0Z" fill="#F0F0FF" p-id="7828"></path><path d="M955.286327 986.300429c-78.347026 0-142.082158-63.735132-142.082158-142.082158s63.735132-142.087063 142.082158-142.087063 142.087063 63.740037 142.087064 142.087063-63.744942 142.082158-142.087064 142.082158z m0-235.114653c-51.296137 0-93.032495 41.736358-93.032495 93.0374 0 51.296137 41.736358 93.032495 93.032495 93.032495 51.301042 0 93.0374-41.736358 93.037401-93.032495 0-51.305947-41.736358-93.0374-93.037401-93.0374z" fill="#6E6E96" p-id="7829"></path><path d="M958.175353 843.850399m-33.059473 0a33.059473 33.059473 0 1 0 66.118945 0 33.059473 33.059473 0 1 0-66.118945 0Z" fill="#6E6E96" p-id="7830"></path><path d="M1099.374617 656.539546h61.302268l-134.611894-309.753525h-240.264868v56.407112h203.477621z" fill="#6E6E96" opacity=".2" p-id="7831"></path><path d="M78.48927 576.583691h687.690988v45.616186H78.48927z" fill="#6E6E96" opacity=".22" p-id="7832"></path></svg>