<svg t="1648695819799" class="icon" viewBox="0 0 1029 1024" version="1.1" xmlns="http://www.w3.org/2000/svg" p-id="2458" width="200" height="200"><path d="M483.8 316.2H248.7c-20.4 0-36.9 16.6-36.9 36.9l-26.8 172.5-123 6.5c-7.4 0-13.4 6-13.4 13.4L26.2 688.2c0 7.4 6 13.4 13.4 13.4H165.8c0-52.4 42.5-94.9 94.9-94.9s94.9 42.5 94.9 94.9h139.6V327.7c0.1-6.2-5.1-11.5-11.4-11.5z" fill="#3E4A5E" p-id="2459"></path><path d="M261.3 762.5c-33.1 0-60.1-27-60.1-60.1s27-60.1 60.1-60.1 60.1 27 60.1 60.1-26.9 60.1-60.1 60.1z" fill="#DDDDDD" p-id="2460"></path><path d="M261.3 659.2c23.8 0 43.3 19.4 43.3 43.3s-19.4 43.3-43.3 43.3-43.3-19.4-43.3-43.3 19.5-43.3 43.3-43.3m0-33.6c-42.4 0-76.9 34.4-76.9 76.9s34.4 76.9 76.9 76.9 76.9-34.4 76.9-76.9-34.4-76.9-76.9-76.9z" fill="#040000" p-id="2461"></path><path d="M214.9 523.1c-7.4 0-13.4-6-13.4-13.4L223.8 391.1c0-7.4 6-13.4 13.4-13.4h66.8c7.4 0 13.4 6 13.4 13.4v132H214.9z" fill="#BDE9FF" p-id="2462"></path><path d="M454.1 620H351.7c-7.4 0-13.4-6-13.4-13.4V391c0-7.4 6-13.4 13.4-13.4h102.4c7.4 0 13.4 6 13.4 13.4v215.6c0 7.4-6 13.4-13.4 13.4z" fill="#BDE9FF" p-id="2463"></path><path d="M261.3 719.2c-9.3 0-16.8-7.5-16.8-16.8s7.5-16.8 16.8-16.8 16.8 7.5 16.8 16.8-7.5 16.8-16.8 16.8z" fill="#DDDDDD" p-id="2464"></path><path d="M261.3 694.7c4.3 0 7.8 3.5 7.8 7.8 0 4.4-3.5 7.8-7.8 7.8s-7.8-3.5-7.8-7.8 3.6-7.8 7.8-7.8m0-17.9c-14.2 0-25.7 11.5-25.7 25.7s11.5 25.7 25.7 25.7 25.7-11.5 25.7-25.7-11.4-25.7-25.7-25.7z" fill="#040000" p-id="2465"></path><path d="M666.3 762.5c-33.1 0-60.1-27-60.1-60.1s27-60.1 60.1-60.1 60.1 27 60.1 60.1c-0.1 33.1-26.9 60.1-60.1 60.1z" fill="#DDDDDD" p-id="2466"></path><path d="M666.3 659.2c23.8 0 43.3 19.4 43.3 43.3s-19.4 43.3-43.3 43.3c-23.8 0-43.3-19.4-43.3-43.3s19.5-43.3 43.3-43.3m0-33.6c-42.4 0-76.9 34.4-76.9 76.9s34.4 76.9 76.9 76.9 76.9-34.4 76.9-76.9-34.4-76.9-76.9-76.9z" fill="#040000" p-id="2467"></path><path d="M666.3 719.2c-9.3 0-16.8-7.5-16.8-16.8s7.5-16.8 16.8-16.8 16.8 7.5 16.8 16.8-7.6 16.8-16.8 16.8z" fill="#DDDDDD" p-id="2468"></path><path d="M666.3 694.7c4.3 0 7.8 3.5 7.8 7.8 0 4.4-3.5 7.8-7.8 7.8-4.4 0-7.8-3.5-7.8-7.8s3.5-7.8 7.8-7.8m0-17.9c-14.2 0-25.7 11.5-25.7 25.7s11.5 25.7 25.7 25.7 25.7-11.5 25.7-25.7-11.5-25.7-25.7-25.7z" fill="#040000" p-id="2469"></path><path d="M868.6 762.5c-33.1 0-60.1-27-60.1-60.1s27-60.1 60.1-60.1 60.1 27 60.1 60.1-27 60.1-60.1 60.1z" fill="#DDDDDD" p-id="2470"></path><path d="M868.6 659.2c23.8 0 43.3 19.4 43.3 43.3s-19.4 43.3-43.3 43.3c-23.8 0-43.3-19.4-43.3-43.3s19.5-43.3 43.3-43.3m0-33.6c-42.4 0-76.9 34.4-76.9 76.9s34.4 76.9 76.9 76.9c42.4 0 76.9-34.4 76.9-76.9s-34.5-76.9-76.9-76.9z" fill="#040000" p-id="2471"></path><path d="M868.6 719.2c-9.3 0-16.8-7.5-16.8-16.8s7.5-16.8 16.8-16.8 16.8 7.5 16.8 16.8-7.5 16.8-16.8 16.8z" fill="#DDDDDD" p-id="2472"></path><path d="M868.6 694.7c4.3 0 7.8 3.5 7.8 7.8 0 4.4-3.5 7.8-7.8 7.8s-7.8-3.5-7.8-7.8 3.6-7.8 7.8-7.8m0-17.9c-14.2 0-25.7 11.5-25.7 25.7s11.5 25.7 25.7 25.7 25.7-11.5 25.7-25.7-11.5-25.7-25.7-25.7z" fill="#040000" p-id="2473"></path><path d="M242.8 436.2c-1.3-0.6-2-2.1-1.5-3.5l10.1-23.5c0.6-1.3 2.1-2 3.5-1.5 1.3 0.6 2 2.1 1.5 3.5l-10.1 23.5c-0.6 1.5-2.2 2.1-3.5 1.5zM242.8 464.5c-1.3-0.6-2-2.1-1.5-3.5l10.1-23.5c0.6-1.3 2.1-2 3.5-1.5 1.3 0.6 2 2.1 1.5 3.5L246.3 463c-0.6 1.5-2.2 2.2-3.5 1.5z" fill="#DEF8FF" p-id="2474"></path><path d="M994.1 601.5H507.3v96.6h69.6c2.2-47.8 41.8-86 90.2-86 48.4 0 87.9 38.1 90.2 86h20.3c2.2-47.8 41.8-86 90.2-86 48.4 0 87.9 38.1 90.2 86h36.3c7.4 0 13.4-6 13.4-13.4V615c-0.2-7.4-6.2-13.5-13.6-13.5z" fill="#3E4A5E" p-id="2475"></path><path d="M84.5 644.5H34.8c-2.8 0-5.1-5.1-5.5-11.9 0-0.9 0-1.9 0.1-2.8L33.8 601c0.8-6.2 1-9.7 3.2-12 1-1 2.4-1.5 3.6-1.5h52.7c5.5 1.7 5.5 6 5.5 13.4v30c0.1 7.6 1.1 13.2-14.3 13.6z" fill="#FAD310" p-id="2476"></path><path d="M105.9 625.6H12.1c-6.6 0-12.1-5.4-12.1-12.1 0-6.6 5.4-12.1 12.1-12.1h93.8c6.6 0 12.1 5.4 12.1 12.1-0.2 6.7-5.5 12.1-12.1 12.1z" fill="#F98B12" p-id="2477"></path><path d="M376.2 702.5h104.8v20.9H376.2z" fill="#AFAFAF" p-id="2478"></path><path d="M376.2 713.7h104.8v20.9H376.2z" fill="#AFAFAF" p-id="2479"></path><path d="M376.2 726.4h104.8v12.5H376.2z" fill="#AFAFAF" p-id="2480"></path><path d="M507.3 205.6h33.8v386.5h-33.8zM177.5 352.9h2.9v39.5h-2.9zM182 375.7h5.7v16.8h-5.7zM182.1 352.9h28.3v6.3h-28.3zM986.7 699.5h6.3v28.3h-6.3z" fill="#1C1C1C" p-id="2481"></path><path d="M995.2 591.1h-442V163.3c0-16.2 13.1-29.3 29.3-29.3h383.4c16.2 0 29.3 13.1 29.3 29.3v427.8z" fill="#F6DA5F" p-id="2482"></path><path d="M650.3 506.8c4.9 0 9.1-4 9.1-9.1V227.3c0-4.9-4-9.1-9.1-9.1-4.9 0-9.1 4-9.1 9.1v270.4c0.1 5 4.2 9.1 9.1 9.1zM739.1 506.8c4.9 0 9.1-4 9.1-9.1V227.3c0-4.9-4-9.1-9.1-9.1-4.9 0-9.1 4-9.1 9.1v270.4c0.1 5 4.2 9.1 9.1 9.1zM826.5 506.8c4.9 0 9.1-4 9.1-9.1V227.3c0-4.9-4-9.1-9.1-9.1-4.9 0-9.1 4-9.1 9.1v270.4c0 5 4.1 9.1 9.1 9.1zM911.5 506.8c4.9 0 9.1-4 9.1-9.1V227.3c0-4.9-4-9.1-9.1-9.1-4.9 0-9.1 4-9.1 9.1v270.4c0 5 4.2 9.1 9.1 9.1z" fill="#E8626E" p-id="2483"></path><path d="M577.8 176.7c0-16.2 13.1-29.3 29.3-29.3h379.6c-3.9-8.1-13-11.2-29.8-11.2H584.7c-16.2 0-29.3 13.1-29.3 29.3v422.2H577.8v-411z" fill="#F09127" p-id="2484"></path></svg>